<svg width="512" height="512" viewBox="0 0 28 24" fill="none" xmlns="http://www.w3.org/2000/svg">
<g id="Group">
<path id="Vector" d="M6.65941 19.3996C6.65941 21.7464 5.60158 23.6482 4.29723 23.6482C2.99288 23.6482 1.93506 21.7456 1.93506 19.3996C1.93506 17.0535 2.99288 15.1509 4.29723 15.1509C5.60158 15.1509 6.65941 17.0535 6.65941 19.3996Z" fill="#58646F"/>
<path id="Vector_2" d="M24.6597 19.3217C24.6597 21.6826 23.5958 23.5969 22.2827 23.5969C20.9697 23.5969 19.9058 21.6833 19.9058 19.3217C19.9058 16.96 20.9701 15.0464 22.2827 15.0464C23.5953 15.0464 24.6597 16.96 24.6597 19.3217Z" fill="#58646F"/>
<path id="Vector_3" d="M5.44235 19.2699C5.44235 20.3639 4.94931 21.2507 4.34105 21.2507C3.73279 21.2507 3.23975 20.3639 3.23975 19.2699C3.23975 18.1759 3.73279 17.2891 4.34105 17.2891C4.94931 17.2891 5.44235 18.1759 5.44235 19.2699Z" fill="#C9CCD0"/>
<path id="Vector_4" d="M23.3554 19.2699C23.3554 20.3639 22.8624 21.2507 22.2541 21.2507C21.6459 21.2507 21.1528 20.3639 21.1528 19.2699C21.1528 18.1759 21.6459 17.2891 22.2541 17.2891C22.8624 17.2891 23.3554 18.1759 23.3554 19.2699Z" fill="#C9CCD0"/>
<path id="Vector_5" d="M26.4347 11.6445C26.4347 10.997 26.1425 10.4715 25.7825 10.4715L20.2834 8.43823C20.2834 8.43823 17.176 4.28496 16.9199 3.90881C16.6638 3.53266 15.9925 2.69043 15.3838 2.69043H7.56511C3.84772 2.69043 2.17337 7.26521 1.1812 10.5997C0.224676 13.8146 0.217285 16.2232 0.217285 18.7123C0.217285 19.2988 0.509459 19.8947 0.869459 19.8947H1.11772C1.12076 19.6601 1.12294 19.5225 1.12294 19.3411C1.12294 16.1739 2.55033 13.5964 4.3112 13.5964C6.07207 13.5964 7.49946 16.1786 7.49946 19.3458C7.49946 19.5248 7.50163 19.6601 7.50468 19.8947H19.0347C19.0382 19.6601 19.0403 19.4881 19.0403 19.2887C19.0403 16.0926 20.6295 13.4924 22.2677 13.4924C23.906 13.4924 25.4951 16.0981 25.4951 19.2941C25.4951 19.4912 25.4973 19.6609 25.5003 19.8955H26.5647C26.9247 19.8955 27.2169 19.3504 27.2169 18.7029L26.4342 11.6453L26.4347 11.6445ZM8.71815 7.56003C8.66294 8.14967 8.52163 8.47733 8.05424 8.47733H3.84772C3.38033 8.47733 3.42511 7.95573 3.5325 7.55846C3.93076 6.08359 5.55772 4.18642 8.93468 4.18642C8.90207 4.79248 8.77381 6.97117 8.71815 7.56081V7.56003ZM17.1303 8.63373H11.1738C10.8138 8.63373 10.5216 8.08867 10.5216 7.44116L10.6086 5.41731C10.6086 4.7698 10.9008 4.25367 11.2608 4.25367H14.9925C15.746 4.25367 15.9925 4.5962 16.3695 5.0654C16.7464 5.53461 17.6955 6.80148 17.6955 7.44038C17.6955 8.07929 17.4903 8.63295 17.1303 8.63295V8.63373Z" fill="#F26A21"/>
<path id="Vector_6" d="M13.3262 13.4822C18.4888 13.4822 23.1179 12.4601 26.2588 10.8445C26.1396 10.6154 25.9709 10.4715 25.7827 10.4715L20.2835 8.43823C20.2835 8.43823 17.1762 4.28496 16.9201 3.90881C16.664 3.53266 15.9927 2.69043 15.384 2.69043H7.56528C3.84789 2.69043 2.17354 7.26521 1.18137 10.5997C1.12572 10.7866 1.07398 10.9704 1.02441 11.1518C4.13833 12.5892 8.49876 13.4822 13.3262 13.4822ZM10.6088 5.41809C10.6088 4.77059 10.9009 4.25446 11.2609 4.25446H14.9927C15.7462 4.25446 15.9927 4.59698 16.3696 5.06619C16.7466 5.5354 17.6957 6.80226 17.6957 7.44116C17.6957 8.08007 17.4905 8.63373 17.1305 8.63373H11.174C10.814 8.63373 10.5218 8.08867 10.5218 7.44116L10.6088 5.41731V5.41809ZM3.53268 7.55925C3.93094 6.08437 5.55789 4.1872 8.93485 4.1872C8.90224 4.79326 8.77398 6.97195 8.71833 7.56159C8.66311 8.15123 8.52181 8.47889 8.05441 8.47889H3.84789C3.3805 8.47889 3.42528 7.95729 3.53268 7.56003V7.55925Z" fill="#F58C55"/>
<path id="Vector_7" d="M1.23905 10.1978H2.63035C2.63035 10.1978 3.10861 12.6611 0.673828 12.6611C0.86948 11.6445 1.23905 10.1978 1.23905 10.1978Z" fill="#FBD4BF"/>
<path id="Vector_8" d="M25.2172 10.1196C25.2172 10.1196 24.7172 14.3425 26.7172 14.1079C26.5433 12.1529 26.652 10.2369 25.2172 10.1196Z" fill="white"/>
<g id="Group_2">
<path id="Vector_9" d="M0.869799 20.2075H1.30806L1.31415 19.8666C1.31762 19.6671 1.31936 19.4881 1.31936 19.3207C1.31936 16.3522 2.66197 13.9381 4.31197 13.9381C5.96197 13.9381 7.30458 16.353 7.30458 19.3207C7.30458 19.4857 7.30632 19.664 7.3098 19.8658L7.31545 20.2067H19.225L19.2307 19.8658C19.2346 19.646 19.2363 19.4505 19.2363 19.2683C19.2363 16.3733 20.6528 13.8333 22.2681 13.8333C23.8833 13.8333 25.2998 16.3733 25.2998 19.2683C25.2998 19.4497 25.3015 19.639 25.305 19.865L25.3107 20.2067H26.565C27.0324 20.2067 27.4854 19.4638 27.4128 18.6818C27.3402 17.8998 26.6298 11.6069 26.6298 11.6069C26.5285 10.8359 26.2498 10.2955 25.8033 10.1195L20.3654 8.10898C20.0224 7.64759 17.2789 3.96196 17.0437 3.61631C16.8333 3.30742 16.0907 2.2994 15.3837 2.2994H7.56502C7.39154 2.2994 7.22241 2.30879 7.05719 2.32834L6.29719 0.164504C6.23936 0.000280673 6.11849 -0.0489862 6.02719 0.0550216C5.93588 0.159029 5.90849 0.376429 5.96632 0.540652L6.62023 2.40263C3.58241 3.07672 2.03154 6.97662 1.00849 10.4151C0.0219727 13.7317 0.0219727 16.249 0.0219727 18.6826C0.0219727 19.4951 0.41806 20.2075 0.869799 20.2075ZM1.35371 10.7459C1.36154 10.7193 1.36936 10.6928 1.37762 10.6669H2.3211C2.33893 10.7209 2.34806 10.8054 2.34806 10.9274C2.34806 11.1862 2.34806 11.9753 1.41676 12.1911C1.3098 12.2161 1.23371 12.3921 1.24762 12.5852C1.26023 12.7627 1.34458 12.8926 1.44154 12.8926C1.4498 12.8926 1.45849 12.8918 1.46676 12.8894C2.57371 12.6329 2.73936 11.5506 2.73936 10.9281C2.73936 10.8335 2.73545 10.7475 2.72806 10.6677H4.89154C4.9998 10.6677 5.08719 10.5105 5.08719 10.3158C5.08719 10.1211 4.9998 9.96392 4.89154 9.96392H1.59502C2.67675 6.5692 4.35067 3.004 7.56545 3.004H9.6511C9.58632 4.52345 9.24502 12.5446 9.21806 13.3579C9.1698 14.8022 9.31632 15.8282 9.66545 16.4961C10.0094 17.153 10.5524 17.472 11.3263 17.472H15.5002C15.6085 17.472 15.6959 17.3148 15.6959 17.1201C15.6959 16.9254 15.6085 16.7682 15.5002 16.7682H11.3263C10.6663 16.7682 10.2163 16.5211 9.95023 16.0136C9.67893 15.4951 9.56719 14.6404 9.60849 13.4001C9.63545 12.5938 9.98675 4.33889 10.0437 3.004H15.3846C15.9772 3.004 16.665 3.969 16.7972 4.16294C17.0537 4.53909 20.0402 8.55082 20.1672 8.7213L20.202 8.76822L25.0028 10.5434C25.0015 10.6106 25.0002 10.6787 25.0002 10.7459C25.0002 12.3303 25.3368 13.6973 25.8376 14.1477C25.8659 14.1727 25.8955 14.1852 25.925 14.1852C25.9968 14.1852 26.0659 14.1141 26.1002 13.9905C26.1485 13.8169 26.1094 13.605 26.0128 13.5182C25.7041 13.2406 25.3915 12.1989 25.3915 10.7451C25.3915 10.7256 25.392 10.706 25.3924 10.6865L25.7828 10.8233C26.0328 10.9211 26.1885 11.2018 26.2394 11.6445L26.805 16.7667H26.1524C26.0441 16.7667 25.9568 16.9238 25.9568 17.1186C25.9568 17.3133 26.0441 17.4705 26.1524 17.4705H26.8481C26.8598 17.4705 26.8715 17.4681 26.8824 17.4642C26.8824 17.4642 27.0046 18.3549 27.0215 18.7146C27.0381 19.0736 26.8111 19.5037 26.5654 19.5037H25.6924C25.6915 19.4224 25.6915 19.345 25.6915 19.2691C25.6915 17.655 25.3154 16.1121 24.6324 14.9242C23.9768 13.7841 23.1154 13.1303 22.2681 13.1303C21.4207 13.1303 20.5594 13.7841 19.9037 14.9242C19.2207 16.1121 18.8446 17.655 18.8446 19.2691C18.8446 19.3442 18.8446 19.4224 18.8437 19.5037H7.69675C7.69632 19.4404 7.69589 19.3801 7.69589 19.3215C7.69589 15.9651 6.17762 13.2351 4.31197 13.2351C2.44632 13.2351 0.927625 15.9651 0.927625 19.3215C0.927625 19.3809 0.927625 19.4411 0.926755 19.5037H0.869364C0.612407 19.5037 0.412842 19.0626 0.412842 18.6826C0.412842 18.2759 0.412842 17.874 0.41719 17.4705H0.630233C0.738494 17.4705 0.825886 17.3133 0.825886 17.1186C0.825886 16.9238 0.738494 16.7667 0.630233 16.7667H0.429799C0.47719 14.9563 0.658929 13.081 1.35328 10.7459H1.35371Z" fill="#263544"/>
<path id="Vector_10" d="M18.9 14.4292C18.8865 14.6224 18.9626 14.7975 19.07 14.8218C19.0782 14.8234 19.0865 14.8249 19.0943 14.8249C19.1917 14.8249 19.2756 14.6943 19.2882 14.5168C19.4361 12.3889 19.0396 9.60185 19.0226 9.48455C18.9956 9.29608 18.8887 9.18347 18.7839 9.23196C18.6791 9.28044 18.6165 9.47282 18.6435 9.66128C18.6474 9.68865 19.0382 12.4343 18.8996 14.43L18.9 14.4292Z" fill="#263544"/>
<path id="Vector_11" d="M17.8915 7.42144C17.8915 6.62223 17.008 5.40307 16.4811 4.74696L16.4319 4.68518C16.0645 4.22614 15.7745 3.86328 14.9932 3.86328H11.2615C10.7967 3.86328 10.418 4.53972 10.4137 5.37413L10.3271 7.39485V7.42223C10.3267 8.26289 10.7067 8.94715 11.1745 8.94715H17.1311C17.5719 8.94715 17.8919 8.3059 17.8919 7.42223L17.8915 7.42144ZM10.7176 7.43396L10.8041 5.41558V5.38821C10.8045 4.93542 11.0093 4.56709 11.2611 4.56709H14.9928C15.6515 4.56709 15.8732 4.84393 16.2085 5.26309L16.2585 5.32565C17.0254 6.28049 17.5002 7.15712 17.5002 7.42144C17.5002 7.79994 17.4032 8.24256 17.1306 8.24256H11.1741C10.9245 8.24256 10.7215 7.88127 10.7176 7.43396Z" fill="#263544"/>
<path id="Vector_12" d="M4.28238 17.001C3.56324 17.001 2.97803 18.0536 2.97803 19.347C2.97803 20.6405 3.56324 21.6931 4.28238 21.6931C5.00151 21.6931 5.58672 20.6405 5.58672 19.347C5.58672 18.0536 5.00151 17.001 4.28238 17.001ZM4.28238 20.9892C3.7789 20.9892 3.36933 20.2526 3.36933 19.347C3.36933 18.4414 3.7789 17.7048 4.28238 17.7048C4.78585 17.7048 5.19542 18.4414 5.19542 19.347C5.19542 20.2526 4.78585 20.9892 4.28238 20.9892Z" fill="#263544"/>
<path id="Vector_13" d="M22.2389 17.001C21.5198 17.001 20.9346 18.0536 20.9346 19.347C20.9346 20.6405 21.5198 21.6931 22.2389 21.6931C22.958 21.6931 23.5433 20.6405 23.5433 19.347C23.5433 18.0536 22.958 17.001 22.2389 17.001ZM22.2389 20.9892C21.7354 20.9892 21.3259 20.2526 21.3259 19.347C21.3259 18.4414 21.7354 17.7048 22.2389 17.7048C22.7424 17.7048 23.152 18.4414 23.152 19.347C23.152 20.2526 22.7424 20.9892 22.2389 20.9892Z" fill="#263544"/>
<path id="Vector_14" d="M12.6303 9.96289H10.4999C10.3916 9.96289 10.3042 10.1201 10.3042 10.3148C10.3042 10.5095 10.3916 10.6667 10.4999 10.6667H12.6303C12.7385 10.6667 12.8259 10.5095 12.8259 10.3148C12.8259 10.1201 12.7385 9.96289 12.6303 9.96289Z" fill="#263544"/>
<path id="Vector_15" d="M8.91109 7.59431C8.96674 7.0031 9.095 4.84866 9.12935 4.20975C9.13457 4.11122 9.11674 4.01268 9.07935 3.93917C9.04239 3.86567 8.98978 3.82422 8.93457 3.82422C5.52674 3.82422 3.79978 5.7425 3.35631 7.38551C3.24587 7.7945 3.23631 8.13468 3.32761 8.39665C3.41848 8.65785 3.5937 8.79079 3.84761 8.79079H8.05413C8.5763 8.79079 8.83239 8.43341 8.91109 7.59509V7.59431ZM3.65935 8.02285C3.65935 8.02285 3.64239 7.93605 3.70804 7.69206C4.01848 6.54172 5.42196 4.61171 8.71761 4.53038C8.66804 5.39372 8.57065 6.99059 8.525 7.477C8.48631 7.89147 8.42718 8.08619 8.0537 8.08619H3.84717C3.695 8.08619 3.65935 8.02285 3.65891 8.02285H3.65935Z" fill="#263544"/>
<path id="Vector_16" d="M7.80435 22.9446H5.9213C6.49957 22.0906 6.86957 20.7948 6.86957 19.3473C6.86957 16.7815 5.70913 14.6943 4.28261 14.6943C2.85609 14.6943 1.69565 16.7815 1.69565 19.3473C1.69565 20.7948 2.06522 22.0906 2.64391 22.9446H0.195652C0.0873913 22.9446 0 23.1018 0 23.2965C0 23.4912 0.0873913 23.6484 0.195652 23.6484H3.28261C3.28652 23.6484 3.29 23.6468 3.29391 23.646C3.5987 23.8736 3.93261 24.0003 4.28261 24.0003C4.63261 24.0003 4.96652 23.8736 5.2713 23.646C5.27522 23.646 5.2787 23.6484 5.28261 23.6484H7.80435C7.91261 23.6484 8 23.4912 8 23.2965C8 23.1018 7.91261 22.9446 7.80435 22.9446ZM2.08696 19.3473C2.08696 17.1694 3.07174 15.3981 4.28261 15.3981C5.49348 15.3981 6.47826 17.1694 6.47826 19.3473C6.47826 21.5252 5.49348 23.2965 4.28261 23.2965C3.07174 23.2965 2.08696 21.5252 2.08696 19.3473Z" fill="#263544"/>
<path id="Vector_17" d="M27.8046 22.9446H23.8781C24.4563 22.0906 24.8263 20.7948 24.8263 19.3473C24.8263 16.7815 23.6659 14.6943 22.2394 14.6943C20.8128 14.6943 19.6524 16.7815 19.6524 19.3473C19.6524 20.7948 20.022 22.0906 20.6007 22.9446H18.7176C18.6094 22.9446 18.522 23.1018 18.522 23.2965C18.522 23.4912 18.6094 23.6484 18.7176 23.6484H21.2394C21.2433 23.6484 21.2468 23.6468 21.2507 23.646C21.5555 23.8736 21.8894 24.0003 22.2394 24.0003C22.5894 24.0003 22.9233 23.8736 23.2281 23.646C23.232 23.646 23.2355 23.6484 23.2394 23.6484H27.8046C27.9128 23.6484 28.0002 23.4912 28.0002 23.2965C28.0002 23.1018 27.9128 22.9446 27.8046 22.9446ZM20.0437 19.3473C20.0437 17.1694 21.0285 15.3981 22.2394 15.3981C23.4502 15.3981 24.435 17.1694 24.435 19.3473C24.435 21.5252 23.4502 23.2965 22.2394 23.2965C21.0285 23.2965 20.0437 21.5252 20.0437 19.3473Z" fill="#263544"/>
<path id="Vector_18" d="M4.56082 19.3418L4.76039 18.9828C4.83691 18.8452 4.83691 18.6223 4.76039 18.4855C4.68387 18.3478 4.55995 18.3478 4.48387 18.4855L4.2843 18.8444L4.07952 18.4753C4.003 18.3377 3.87908 18.3377 3.803 18.4753C3.72648 18.6129 3.72648 18.8358 3.803 18.9727L4.00821 19.3418L3.80821 19.7015C3.73169 19.8391 3.73169 20.062 3.80821 20.1989C3.84647 20.2677 3.89647 20.3021 3.94647 20.3021C3.99647 20.3021 4.04647 20.2677 4.08474 20.1989L4.28474 19.8391L4.48821 20.2059C4.52648 20.2747 4.57648 20.3091 4.62648 20.3091C4.67648 20.3091 4.72647 20.2747 4.76474 20.2059C4.84126 20.0683 4.84126 19.8454 4.76474 19.7085L4.56126 19.3418H4.56082Z" fill="#263544"/>
<path id="Vector_19" d="M22.5174 19.3418L22.7169 18.9828C22.7935 18.8452 22.7935 18.6223 22.7169 18.4855C22.6404 18.3478 22.5165 18.3478 22.4404 18.4855L22.2408 18.8444L22.0361 18.4753C21.9595 18.3377 21.8361 18.3377 21.7595 18.4753C21.683 18.6129 21.683 18.8358 21.7595 18.9727L21.9648 19.3418L21.7648 19.7015C21.6882 19.8391 21.6882 20.062 21.7648 20.1989C21.803 20.2677 21.853 20.3021 21.903 20.3021C21.953 20.3021 22.003 20.2677 22.0413 20.1989L22.2413 19.8391L22.4448 20.2059C22.483 20.2747 22.533 20.3091 22.583 20.3091C22.633 20.3091 22.683 20.2747 22.7213 20.2059C22.7978 20.0683 22.7978 19.8454 22.7213 19.7085L22.5178 19.3418H22.5174Z" fill="#263544"/>
</g>
</g>
</svg>
